<svg xmlns="http://www.w3.org/2000/svg" viewBox="0 0 559 195" width="559" height="195" fill="none"><rect x="0" y="0" width="559" height="195" rx="34" fill="#0D1117"/><g transform="translate(47.992,127.977)" fill="#3FB950"><path transform="translate(0.000,0) scale(0.04883,-0.04883)" d="M694 528V226Q757 235 792.0 274.5Q827 314 827 375Q827 437 792.5 476.5Q758 516 694 528ZM553 817V1100Q491 1092 459.5 1058.5Q428 1025 428 967Q428 910 459.5 872.0Q491 834 553 817ZM694 -301H553L552 0Q465 3 370.0 26.0Q275 49 172 92V354Q275 293 371.5 260.0Q468 227 553 226V555Q356 594 260.0 689.5Q164 785 164 942Q164 1109 266.0 1208.0Q368 1307 553 1319V1556H694L695 1319Q766 1315 842.5 1301.0Q919 1287 999 1262V1006Q937 1046 861.0 1070.0Q785 1094 694 1100V793Q891 762 991.5 658.5Q1092 555 1092 383Q1092 219 983.5 114.0Q875 9 695 0Z"/><path transform="translate(60.205,0) scale(0.04883,-0.04883)" d="M88 926V1176L1145 760V524L88 109V358L883 641Z"/></g><g transform="translate(193.493,127.977)" fill="#E6EDF3"><path transform="translate(0.000,0) scale(0.04883,-0.04883)" d="M1061 57Q987 14 902.0 -7.5Q817 -29 719 -29Q460 -29 314.0 127.0Q168 283 168 559Q168 836 315.0 992.5Q462 1149 721 1149Q811 1149 894.5 1128.0Q978 1107 1061 1063V795Q997 850 920.5 879.5Q844 909 762 909Q619 909 542.0 818.0Q465 727 465 559Q465 391 542.0 301.0Q619 211 762 211Q847 211 921.0 239.5Q995 268 1061 326Z"/><path transform="translate(60.205,0) scale(0.04883,-0.04883)" d="M1061 57Q987 14 902.0 -7.5Q817 -29 719 -29Q460 -29 314.0 127.0Q168 283 168 559Q168 836 315.0 992.5Q462 1149 721 1149Q811 1149 894.5 1128.0Q978 1107 1061 1063V795Q997 850 920.5 879.5Q844 909 762 909Q619 909 542.0 818.0Q465 727 465 559Q465 391 542.0 301.0Q619 211 762 211Q847 211 921.0 239.5Q995 268 1061 326Z"/><path transform="translate(120.410,0) scale(0.04883,-0.04883)" d="M616 909Q511 909 451.0 816.5Q391 724 391 559Q391 394 451.0 301.5Q511 209 616 209Q722 209 782.0 301.5Q842 394 842 559Q842 724 782.0 816.5Q722 909 616 909ZM98 559Q98 830 238.5 988.5Q379 1147 616 1147Q854 1147 994.5 988.5Q1135 830 1135 559Q1135 288 994.5 129.5Q854 -29 616 -29Q379 -29 238.5 129.5Q98 288 98 559Z"/><path transform="translate(180.615,0) scale(0.04883,-0.04883)" d="M1071 727V0H780V682Q780 804 745.5 856.5Q711 909 633 909Q554 909 508.5 838.0Q463 767 463 641V0H172V1120H463V952Q494 1045 569.0 1096.0Q644 1147 750 1147Q909 1147 990.0 1041.5Q1071 936 1071 727Z"/><path transform="translate(240.820,0) scale(0.04883,-0.04883)" d="M1153 1120 797 0H436L80 1120H377L616 246L856 1120Z"/></g></svg>